<svg width="118" height="112" viewBox="0 0 118 112" fill="none" xmlns="http://www.w3.org/2000/svg">
<path d="M46.0645 25.2121C32.3357 36.261 30.1632 56.3473 41.2121 70.0761C45.5563 75.4739 28.2975 88.7763 34.5 90.5C44.0731 93.1604 77.7451 81.6332 86.0761 74.9284C99.8049 63.8795 101.977 43.7933 90.9285 30.0645C79.8796 16.3357 59.7933 14.1632 46.0645 25.2121Z" fill="white" stroke="url(#paint0_linear)" stroke-width="5"/>
<path d="M69.794 61.69C68.926 63.79 67.106 64.84 64.334 64.84C62.906 64.84 61.744 64.35 60.848 63.37C60.092 62.502 59.714 61.634 59.714 60.766C59.714 58.498 60.232 55.152 61.268 50.728L62.822 42.58L71.348 41.74L68.786 55.012C68.31 57.084 68.072 58.484 68.072 59.212C68.072 60.808 68.646 61.634 69.794 61.69ZM63.578 36.742C63.578 35.65 64.026 34.81 64.922 34.222C65.846 33.634 66.966 33.34 68.282 33.34C69.598 33.34 70.648 33.634 71.432 34.222C72.244 34.81 72.65 35.65 72.65 36.742C72.65 37.834 72.202 38.66 71.306 39.22C70.438 39.78 69.346 40.06 68.03 40.06C66.714 40.06 65.636 39.78 64.796 39.22C63.984 38.66 63.578 37.834 63.578 36.742Z" fill="url(#paint1_linear)"/>
<defs>
<linearGradient id="paint0_linear" x1="82.0926" y1="19.0855" x2="86.3922" y2="90.7109" gradientUnits="userSpaceOnUse">
<stop stop-color="#E03BFB"/>
<stop offset="1" stop-color="#6831DE"/>
</linearGradient>
<linearGradient id="paint1_linear" x1="52.6889" y1="49.2022" x2="69.3576" y2="53.3763" gradientUnits="userSpaceOnUse">
<stop stop-color="#CF48FF"/>
<stop offset="0.390624" stop-color="#AE46FF"/>
<stop offset="0.942708" stop-color="#6831DE"/>
</linearGradient>
</defs>
</svg>
