<svg width="74" height="120" viewBox="0 0 74 120" fill="none" xmlns="http://www.w3.org/2000/svg">
<path d="M37 101C17.67 101 2 104.806 2 109.5C2 114.194 17.67 118 37 118C56.33 118 72 114.194 72 109.5C72 105.474 60.4748 102.102 45 101.223" stroke="white" stroke-width="3"/>
<path fill-rule="evenodd" clip-rule="evenodd" d="M60.43 12.7503C69.7804 24.0425 70.1917 39.7876 62.4716 51.3982L37.2957 110.46L8.23828 51.1211C-0.641789 37.4944 1.92421 19.0755 14.7521 8.45352C28.5522 -2.97359 49.0029 -1.04986 60.43 12.7503ZM50.3699 51.0099C40.7989 58.9352 26.6153 57.601 18.69 48.0299C10.7647 38.4588 12.0989 24.2752 21.67 16.35C31.2411 8.42471 45.4247 9.75891 53.35 19.33C61.2752 28.9011 59.941 43.0847 50.3699 51.0099Z" fill="white"/>
<path d="M27.9734 44.3901C30.929 48.1132 39.8803 50.1612 45 43" stroke="white" stroke-width="2"/>
<path d="M26.5 32C28.433 32 30 30.433 30 28.5C30 26.567 28.433 25 26.5 25C24.567 25 23 26.567 23 28.5C23 30.433 24.567 32 26.5 32Z" fill="white"/>
<path d="M41.5 29H47.5" stroke="white" stroke-width="3"/>
</svg>
