<svg width="119" height="101" viewBox="0 0 119 101" fill="none" xmlns="http://www.w3.org/2000/svg">
<path d="M25.0629 71.563C36.6956 85.6114 57.5144 87.5698 71.5629 75.937C85.6114 64.3043 87.5697 43.4855 75.937 29.437C64.3042 15.3886 43.4855 13.4302 29.437 25.063C15.3885 36.6957 13.4301 57.5145 25.0629 71.563Z" fill="white" stroke="url(#paint0_linear)" stroke-width="5"/>
<path d="M38.689 66.2203C43.0272 71.6851 56.166 74.6912 63.6807 64.1799" stroke="url(#paint1_linear)" stroke-width="2"/>
<path d="M37.9947 49.5019C40.832 49.5019 43.1321 47.2019 43.1321 44.3646C43.1321 41.5274 40.832 39.2273 37.9947 39.2273C35.1575 39.2273 32.8574 41.5274 32.8574 44.3646C32.8574 47.2019 35.1575 49.5019 37.9947 49.5019Z" fill="url(#paint2_linear)"/>
<path d="M63.4459 49.5019C66.2832 49.5019 68.5832 47.2019 68.5832 44.3646C68.5832 41.5274 66.2832 39.2273 63.4459 39.2273C60.6086 39.2273 58.3086 41.5274 58.3086 44.3646C58.3086 47.2019 60.6086 49.5019 63.4459 49.5019Z" fill="url(#paint3_linear)"/>
<path fill-rule="evenodd" clip-rule="evenodd" d="M90.24 85C88.5831 85 87.24 83.6569 87.24 82V80.629C85.4663 80.1103 83.7539 79.3491 82.1566 78.3505L81.3371 79.17C80.1655 80.3416 78.2661 80.3416 77.0945 79.17L73.8701 75.9456C72.6985 74.774 72.6985 72.8745 73.8701 71.7029L74.9472 70.6258C74.1211 69.0804 73.5106 67.458 73.1117 65.8H72C70.3431 65.8 69 64.4569 69 62.8V58.24C69 56.5831 70.3431 55.24 72 55.24H73.3709C73.6607 54.249 74.0262 53.2771 74.4666 52.3337L73.0412 50.9084C71.8697 49.7368 71.8697 47.8373 73.0412 46.6657L76.2656 43.4413C77.4372 42.2697 79.3367 42.2697 80.5083 43.4413L81.2927 44.2257C83.1491 42.927 85.1595 41.977 87.24 41.3677V40C87.24 38.3431 88.5831 37 90.24 37H94.8C96.4569 37 97.8 38.3431 97.8 40V41.1154C99.4679 41.5167 101.091 42.1283 102.627 42.9464L103.569 42.0045C104.74 40.8329 106.64 40.8329 107.811 42.0045L111.036 45.2289C112.207 46.4004 112.207 48.2999 111.036 49.4715L110.348 50.1591C111.357 51.7686 112.116 53.4792 112.632 55.24H114C115.657 55.24 117 56.5831 117 58.24V62.8C117 64.4569 115.657 65.8 114 65.8H112.884C112.296 68.2446 111.256 70.5933 109.777 72.7101L110.207 73.1398C111.378 74.3114 111.378 76.2109 110.207 77.3824L106.982 80.6069C105.811 81.7784 103.911 81.7784 102.74 80.6069L101.666 79.5334C100.414 80.12 99.1182 80.571 97.8 80.8881V82C97.8 83.6569 96.4569 85 94.8 85H90.24Z" fill="white"/>
<path d="M87.24 80.629H88.74V79.5048L87.661 79.1893L87.24 80.629ZM82.1566 78.3505L82.9517 77.0786L81.9398 76.446L81.0959 77.2899L82.1566 78.3505ZM81.3371 79.17L82.3978 80.2307L82.3978 80.2307L81.3371 79.17ZM77.0945 79.17L78.1551 78.1093L78.1551 78.1093L77.0945 79.17ZM73.8701 75.9456L72.8094 77.0063L72.8094 77.0063L73.8701 75.9456ZM73.8701 71.7029L74.9307 72.7636L74.9307 72.7636L73.8701 71.7029ZM74.9472 70.6258L76.0079 71.6865L76.7945 70.8998L76.2701 69.9187L74.9472 70.6258ZM73.1117 65.8L74.5701 65.4492L74.2936 64.3H73.1117V65.8ZM73.3709 55.24V56.74H74.495L74.8106 55.661L73.3709 55.24ZM74.4666 52.3337L75.8258 52.9682L76.2702 52.016L75.5272 51.2731L74.4666 52.3337ZM73.0412 50.9084L74.1019 49.8477L74.1019 49.8477L73.0412 50.9084ZM80.5083 43.4413L81.5689 42.3807L81.5689 42.3807L80.5083 43.4413ZM81.2927 44.2257L80.232 45.2864L81.1216 46.176L82.1525 45.4548L81.2927 44.2257ZM87.24 41.3677L87.6616 42.8072L88.74 42.4914V41.3677H87.24ZM97.8 41.1154H96.3V42.2973L97.4491 42.5738L97.8 41.1154ZM102.627 42.9464L101.921 44.2702L102.902 44.7925L103.687 44.007L102.627 42.9464ZM103.569 42.0045L102.508 40.9438L102.508 40.9438L103.569 42.0045ZM107.811 42.0045L108.872 40.9438L108.872 40.9438L107.811 42.0045ZM111.036 45.2289L109.975 46.2895L109.975 46.2895L111.036 45.2289ZM111.036 49.4715L109.975 48.4109L109.975 48.4109L111.036 49.4715ZM110.348 50.1591L109.287 49.0984L108.443 49.9432L109.077 50.9556L110.348 50.1591ZM112.632 55.24L111.193 55.6616L111.508 56.74H112.632V55.24ZM112.884 65.8V64.3H111.703L111.426 65.4491L112.884 65.8ZM109.777 72.7101L108.548 71.8509L107.827 72.8816L108.716 73.7707L109.777 72.7101ZM110.207 77.3824L109.146 76.3218L109.146 76.3218L110.207 77.3824ZM106.982 80.6069L108.043 81.6675L108.043 81.6675L106.982 80.6069ZM102.74 80.6069L103.8 79.5462L103.8 79.5462L102.74 80.6069ZM101.666 79.5334L102.727 78.4727L101.983 77.7286L101.03 78.175L101.666 79.5334ZM97.8 80.8881L97.4491 79.4297L96.3 79.7062V80.8881H97.8ZM85.74 82C85.74 84.4853 87.7547 86.5 90.24 86.5V83.5C89.4116 83.5 88.74 82.8284 88.74 82H85.74ZM85.74 80.629V82H88.74V80.629H85.74ZM81.3615 79.6224C83.077 80.6949 84.9155 81.512 86.819 82.0687L87.661 79.1893C86.0172 78.7086 84.4309 78.0033 82.9517 77.0786L81.3615 79.6224ZM82.3978 80.2307L83.2173 79.4112L81.0959 77.2899L80.2765 78.1093L82.3978 80.2307ZM76.0338 80.2307C77.7912 81.988 80.6404 81.988 82.3978 80.2307L80.2765 78.1093C79.6907 78.6951 78.7409 78.6951 78.1551 78.1093L76.0338 80.2307ZM72.8094 77.0063L76.0338 80.2307L78.1551 78.1093L74.9307 74.8849L72.8094 77.0063ZM72.8094 70.6423C71.052 72.3996 71.0521 75.2489 72.8094 77.0063L74.9307 74.8849C74.3449 74.2991 74.3449 73.3494 74.9307 72.7636L72.8094 70.6423ZM73.8865 69.5652L72.8094 70.6423L74.9307 72.7636L76.0079 71.6865L73.8865 69.5652ZM71.6533 66.1508C72.0816 67.9311 72.7372 69.6734 73.6243 71.333L76.2701 69.9187C75.505 68.4874 74.9395 66.985 74.5701 65.4492L71.6533 66.1508ZM72 67.3H73.1117V64.3H72V67.3ZM67.5 62.8C67.5 65.2853 69.5147 67.3 72 67.3V64.3C71.1716 64.3 70.5 63.6284 70.5 62.8H67.5ZM67.5 58.24V62.8H70.5V58.24H67.5ZM72 53.74C69.5147 53.74 67.5 55.7547 67.5 58.24H70.5C70.5 57.4116 71.1716 56.74 72 56.74V53.74ZM73.3709 53.74H72V56.74H73.3709V53.74ZM73.1074 51.6993C72.6346 52.7122 72.2422 53.7554 71.9312 54.819L74.8106 55.661C75.0792 54.7426 75.4179 53.842 75.8258 52.9682L73.1074 51.6993ZM71.9806 51.969L73.4059 53.3944L75.5272 51.2731L74.1019 49.8477L71.9806 51.969ZM71.9806 45.6051C70.2232 47.3624 70.2232 50.2117 71.9806 51.969L74.1019 49.8477C73.5161 49.2619 73.5161 48.3122 74.1019 47.7264L71.9806 45.6051ZM75.205 42.3807L71.9806 45.6051L74.1019 47.7264L77.3263 44.502L75.205 42.3807ZM81.5689 42.3807C79.8116 40.6233 76.9623 40.6233 75.205 42.3807L77.3263 44.502C77.9121 43.9162 78.8618 43.9162 79.4476 44.502L81.5689 42.3807ZM82.3533 43.165L81.5689 42.3807L79.4476 44.502L80.232 45.2864L82.3533 43.165ZM86.8184 39.9281C84.584 40.5825 82.4251 41.6028 80.4328 42.9966L82.1525 45.4548C83.873 44.2512 85.7351 43.3714 87.6616 42.8072L86.8184 39.9281ZM85.74 40V41.3677H88.74V40H85.74ZM90.24 35.5C87.7547 35.5 85.74 37.5147 85.74 40H88.74C88.74 39.1716 89.4116 38.5 90.24 38.5V35.5ZM94.8 35.5H90.24V38.5H94.8V35.5ZM99.3 40C99.3 37.5147 97.2853 35.5 94.8 35.5V38.5C95.6284 38.5 96.3 39.1716 96.3 40H99.3ZM99.3 41.1154V40H96.3V41.1154H99.3ZM103.332 41.6225C101.683 40.7441 99.9406 40.0876 98.1509 39.657L97.4491 42.5738C98.9952 42.9457 100.499 43.5126 101.921 44.2702L103.332 41.6225ZM102.508 40.9438L101.566 41.8857L103.687 44.007L104.629 43.0651L102.508 40.9438ZM108.872 40.9438C107.114 39.1864 104.265 39.1864 102.508 40.9438L104.629 43.0651C105.215 42.4793 106.165 42.4793 106.751 43.0651L108.872 40.9438ZM112.096 44.1682L108.872 40.9438L106.751 43.0651L109.975 46.2895L112.096 44.1682ZM112.096 50.5322C113.854 48.7748 113.854 45.9256 112.096 44.1682L109.975 46.2895C110.561 46.8753 110.561 47.8251 109.975 48.4109L112.096 50.5322ZM111.409 51.2197L112.096 50.5322L109.975 48.4109L109.287 49.0984L111.409 51.2197ZM114.072 54.8184C113.518 52.9275 112.702 51.0905 111.619 49.3626L109.077 50.9556C110.011 52.4467 110.715 54.031 111.193 55.6616L114.072 54.8184ZM114 53.74H112.632V56.74H114V53.74ZM118.5 58.24C118.5 55.7547 116.485 53.74 114 53.74V56.74C114.828 56.74 115.5 57.4116 115.5 58.24H118.5ZM118.5 62.8V58.24H115.5V62.8H118.5ZM114 67.3C116.485 67.3 118.5 65.2853 118.5 62.8H115.5C115.5 63.6284 114.828 64.3 114 64.3V67.3ZM112.884 67.3H114V64.3H112.884V67.3ZM111.007 73.5693C112.595 71.2958 113.712 68.774 114.343 66.1509L111.426 65.4491C110.881 67.7152 109.917 69.8908 108.548 71.8509L111.007 73.5693ZM111.267 72.0791L110.838 71.6494L108.716 73.7707L109.146 74.2005L111.267 72.0791ZM111.267 78.4431C113.025 76.6857 113.025 73.8365 111.267 72.0791L109.146 74.2005C109.732 74.7863 109.732 75.736 109.146 76.3218L111.267 78.4431ZM108.043 81.6675L111.267 78.4431L109.146 76.3218L105.922 79.5462L108.043 81.6675ZM101.679 81.6675C103.436 83.4249 106.286 83.4249 108.043 81.6675L105.922 79.5462C105.336 80.132 104.386 80.132 103.8 79.5462L101.679 81.6675ZM100.606 80.594L101.679 81.6675L103.8 79.5462L102.727 78.4727L100.606 80.594ZM98.1508 82.3465C99.5662 82.006 100.958 81.5218 102.303 80.8917L101.03 78.175C99.8702 78.7183 98.6702 79.1359 97.4491 79.4297L98.1508 82.3465ZM99.3 82V80.8881H96.3V82H99.3ZM94.8 86.5C97.2853 86.5 99.3 84.4853 99.3 82H96.3C96.3 82.8284 95.6284 83.5 94.8 83.5V86.5ZM90.24 86.5H94.8V83.5H90.24V86.5Z" fill="url(#paint4_linear)"/>
<path d="M84.4499 68.8961C88.5642 73.8648 95.9275 74.5575 100.896 70.4431C105.865 66.3288 106.558 58.9655 102.443 53.9967C98.329 49.028 90.9657 48.3353 85.9969 52.4497C81.0282 56.564 80.3355 63.9273 84.4499 68.8961Z" fill="white" stroke="url(#paint5_linear)" stroke-width="3"/>
<defs>
<linearGradient id="paint0_linear" x1="66.6342" y1="18.2024" x2="63.2766" y2="85.2943" gradientUnits="userSpaceOnUse">
<stop stop-color="#E03BFB"/>
<stop offset="1" stop-color="#6831DE"/>
</linearGradient>
<linearGradient id="paint1_linear" x1="45.6658" y1="64.1799" x2="48.6257" y2="73.8373" gradientUnits="userSpaceOnUse">
<stop stop-color="#E03BFB"/>
<stop offset="1" stop-color="#6831DE"/>
</linearGradient>
<linearGradient id="paint2_linear" x1="35.7258" y1="39.2273" x2="43.4311" y2="46.2857" gradientUnits="userSpaceOnUse">
<stop stop-color="#E03BFB"/>
<stop offset="1" stop-color="#6831DE"/>
</linearGradient>
<linearGradient id="paint3_linear" x1="61.1769" y1="39.2273" x2="68.8823" y2="46.2857" gradientUnits="userSpaceOnUse">
<stop stop-color="#E03BFB"/>
<stop offset="1" stop-color="#6831DE"/>
</linearGradient>
<linearGradient id="paint4_linear" x1="82.4" y1="37" x2="118.397" y2="69.9749" gradientUnits="userSpaceOnUse">
<stop stop-color="#E03BFB"/>
<stop offset="1" stop-color="#6831DE"/>
</linearGradient>
<linearGradient id="paint5_linear" x1="99.153" y1="50.0232" x2="97.9655" y2="73.7526" gradientUnits="userSpaceOnUse">
<stop stop-color="#E03BFB"/>
<stop offset="1" stop-color="#6831DE"/>
</linearGradient>
</defs>
</svg>
