<svg width="196" height="196" viewBox="0 0 196 196" fill="none" xmlns="http://www.w3.org/2000/svg">
<circle cx="98" cy="98" r="93" fill="white" stroke="url(#paint0_linear)" stroke-width="10"/>
<mask id="path-2-inside-1" fill="white">
<path fill-rule="evenodd" clip-rule="evenodd" d="M117.483 107.194C121.593 101.313 124 94.1838 124 86.5C124 66.3416 107.435 50 87 50C66.5655 50 50 66.3416 50 86.5C50 106.658 66.5655 123 87 123C94.2767 123 101.063 120.928 106.785 117.349L131.361 141.924C134.24 144.804 138.908 144.804 141.787 141.924C144.666 139.045 144.666 134.377 141.787 131.498L117.483 107.194Z"/>
</mask>
<path fill-rule="evenodd" clip-rule="evenodd" d="M117.483 107.194C121.593 101.313 124 94.1838 124 86.5C124 66.3416 107.435 50 87 50C66.5655 50 50 66.3416 50 86.5C50 106.658 66.5655 123 87 123C94.2767 123 101.063 120.928 106.785 117.349L131.361 141.924C134.24 144.804 138.908 144.804 141.787 141.924C144.666 139.045 144.666 134.377 141.787 131.498L117.483 107.194Z" fill="white"/>
<path d="M117.483 107.194L109.286 101.465L104.483 108.337L110.412 114.265L117.483 107.194ZM106.785 117.349L113.856 110.278L108.229 104.651L101.482 108.871L106.785 117.349ZM131.361 141.924L124.289 148.996L124.289 148.996L131.361 141.924ZM141.787 141.924L148.858 148.996L148.858 148.996L141.787 141.924ZM141.787 131.498L148.858 124.427L148.858 124.427L141.787 131.498ZM114 86.5C114 92.0601 112.266 97.2019 109.286 101.465L125.679 112.923C130.92 105.424 134 96.3075 134 86.5H114ZM87 60C102.04 60 114 71.9923 114 86.5H134C134 60.6909 112.829 40 87 40V60ZM60 86.5C60 71.9923 71.9596 60 87 60V40C61.1713 40 40 60.6909 40 86.5H60ZM87 113C71.9596 113 60 101.008 60 86.5H40C40 112.309 61.1713 133 87 133V113ZM101.482 108.871C97.3096 111.48 92.3544 113 87 113V133C96.1991 133 104.816 130.375 112.088 125.827L101.482 108.871ZM138.432 134.853L113.856 110.278L99.7139 124.42L124.289 148.996L138.432 134.853ZM134.716 134.853C135.742 133.827 137.405 133.827 138.432 134.853L124.289 148.996C131.074 155.78 142.073 155.78 148.858 148.996L134.716 134.853ZM134.716 138.569C133.69 137.543 133.69 135.879 134.716 134.853L148.858 148.996C155.642 142.211 155.642 131.212 148.858 124.427L134.716 138.569ZM110.412 114.265L134.716 138.569L148.858 124.427L124.554 100.123L110.412 114.265Z" fill="url(#paint1_linear)" mask="url(#path-2-inside-1)"/>
<defs>
<linearGradient id="paint0_linear" x1="54.7167" y1="1.33284e-05" x2="201.704" y2="134.648" gradientUnits="userSpaceOnUse">
<stop stop-color="#E03BFB"/>
<stop offset="1" stop-color="#6831DE"/>
</linearGradient>
<linearGradient id="paint1_linear" x1="76.2266" y1="50" x2="146.774" y2="114.531" gradientUnits="userSpaceOnUse">
<stop stop-color="#E03BFB"/>
<stop offset="1" stop-color="#6831DE"/>
</linearGradient>
</defs>
</svg>
