<svg width="80" height="86" viewBox="0 0 80 86" fill="none" xmlns="http://www.w3.org/2000/svg">
<rect x="1.5" y="1.5" width="77" height="83" rx="3.5" fill="white" stroke="url(#paint0_linear)" stroke-width="3"/>
<rect x="13" y="11" width="53" height="7" rx="3" fill="url(#paint1_linear)"/>
<rect x="13" y="28" width="53" height="7" rx="3" fill="url(#paint2_linear)"/>
<rect x="13" y="45" width="45" height="7" rx="3" fill="url(#paint3_linear)"/>
<rect x="13" y="62" width="33" height="7" rx="3" fill="url(#paint4_linear)"/>
<path fill-rule="evenodd" clip-rule="evenodd" d="M58.8437 69.2478C58.9548 69.4863 59.1232 69.7026 59.346 69.8744C60.0894 70.4479 61.157 70.3101 61.7304 69.5667L71.8693 56.4227C72.4427 55.6793 72.305 54.6118 71.5615 54.0383C70.8181 53.4649 69.7506 53.6027 69.1772 54.3461L60.282 65.8777L53.6062 59.202C52.9424 58.5381 51.866 58.5381 51.2021 59.202C50.5382 59.8659 50.5382 60.9423 51.2021 61.6062L58.8437 69.2478Z" fill="url(#paint5_linear)"/>
<defs>
<linearGradient id="paint0_linear" x1="22.3333" y1="5.84817e-06" x2="86.256" y2="54.4708" gradientUnits="userSpaceOnUse">
<stop stop-color="#E03BFB"/>
<stop offset="1" stop-color="#6831DE"/>
</linearGradient>
<linearGradient id="paint1_linear" x1="27.7958" y1="11" x2="29.2845" y2="21.3249" gradientUnits="userSpaceOnUse">
<stop stop-color="#E03BFB"/>
<stop offset="1" stop-color="#6831DE"/>
</linearGradient>
<linearGradient id="paint2_linear" x1="27.7958" y1="28" x2="29.2845" y2="38.3249" gradientUnits="userSpaceOnUse">
<stop stop-color="#E03BFB"/>
<stop offset="1" stop-color="#6831DE"/>
</linearGradient>
<linearGradient id="paint3_linear" x1="25.5625" y1="45" x2="27.3021" y2="55.2441" gradientUnits="userSpaceOnUse">
<stop stop-color="#E03BFB"/>
<stop offset="1" stop-color="#6831DE"/>
</linearGradient>
<linearGradient id="paint4_linear" x1="22.2125" y1="62" x2="24.5288" y2="72.0031" gradientUnits="userSpaceOnUse">
<stop stop-color="#E03BFB"/>
<stop offset="1" stop-color="#6831DE"/>
</linearGradient>
<linearGradient id="paint5_linear" x1="56.7116" y1="53.6843" x2="68.9776" y2="68.2994" gradientUnits="userSpaceOnUse">
<stop stop-color="#E03BFB"/>
<stop offset="1" stop-color="#6831DE"/>
</linearGradient>
</defs>
</svg>
