<svg version="1" xmlns="http://www.w3.org/2000/svg" viewBox="0 0 174.097 150.103"><circle cx="120.717" cy="36.919" r="20" fill="#27aae1"/><circle cx="52.719" cy="36.919" r="20" fill="#27aae1"/><path d="M40.847 54.828a21.646 21.646 0 0 1-7.248-8.121c-10.398 10.306-2.383 11.453 7.248 8.121zM134.551 53.353c7.135 2.558 12.026 4.458 14.168 1.066 1.476-2.336.613-6.463-7.618-10.71a21.563 21.563 0 0 1-6.55 9.644zM99.217 36.919c0-.28.031-.552.042-.829a70.29 70.29 0 0 0-11.369 2.452 99.296 99.296 0 0 1 12.986 6.647 21.37 21.37 0 0 1-1.659-8.27z" fill="#27aae1"/><path d="M41.413 78.217l1.565.342.074-4.026c-.542 1.065-1.088 2.317-1.639 3.684zM130.059 78.647l2.726-.597c-.874-1.794-1.772-3.223-2.726-4.062v4.659z" fill="none"/><path d="M150.66 103.176c-.003.004.165-.189 0 0z" fill="#27aae1"/><path d="M50.076 125.76a477.858 477.858 0 0 0-34.744 13.856L9.709 97.608a516.473 516.473 0 0 1 37.55-14.176c.941 14.109 1.877 28.219 2.817 42.328z" fill="#a7a9ac"/><path d="M50.076 125.76c12.333 2.396 24.569 5.263 36.681 8.517V91.845c-13.05-3.26-26.227-6.086-39.497-8.413.94 14.109 1.876 28.219 2.816 42.328z" fill="#939598"/><path d="M123.437 125.759c-12.332 2.397-24.568 5.263-36.68 8.518V91.845c13.05-3.259 26.227-6.086 39.497-8.413l-2.817 42.327z" fill="#808285"/><path d="M123.437 125.759a477.232 477.232 0 0 1 34.744 13.857l5.624-42.008a516.473 516.473 0 0 0-37.55-14.176c-.941 14.109-1.88 28.218-2.818 42.327z" fill="#a7a9ac"/><path d="M43.052 74.533l-.09 4.88 4.104-1.587 29.351 6.507c-.293-.86.678-1.219.385-2.08l-3.995-11.739c-.109-.321-.047-.328.149-.643l2.022-3.247 2.461-3.954c.342-.548 1.107-1.242.755-1.843-.128-.219-.678-.866-.654-1.115a78.043 78.043 0 0 1 3.188-2.185 66.282 66.282 0 0 1 5.91-3.425c-4.611-3.117-9.777-5.518-15.276-6.521-5.225 9.101-16.614 13.216-26.421 9.365a21.552 21.552 0 0 1-2.731-1.299c-.417-.235-.589-.056-1.026.097-1.507.524-3.042.977-4.604 1.301-.642.134-1.289.245-1.939.324a108.15 108.15 0 0 0-.758 1.571 142.277 142.277 0 0 0-1.718 3.775 172.784 172.784 0 0 0-6.459 17.08c-1.708 5.378-3.238 10.926-3.755 16.564-.212 2.378-.311 4.988.545 7.26.704 1.963 2.613 3.456 4.758 2.843 2.114-.604 3.556-2.81 4.624-4.582 1.314-2.182 2.345-4.535 3.303-6.891 2.133-5.24 3.83-10.643 5.891-15.91.601-1.538 1.23-3.073 1.98-4.546z" fill="#27aae1"/><path d="M151.666 88.502c-.996-5.461-2.601-10.814-4.431-16.048a156.235 156.235 0 0 0-3.364-8.771 135.874 135.874 0 0 0-2.466-5.544c-.25-.526-.517-1.553-1.086-1.72-1.281-.375-2.543-.812-3.801-1.257-.693-.245-1.385-.495-2.077-.743-.326-.117-.653-.232-.979-.348-.491-.174-.716.159-1.132.427a21.475 21.475 0 0 1-7.554 3.046 21.512 21.512 0 0 1-14.713-2.449 21.683 21.683 0 0 1-8.382-8.707c-.244-.156-.49-.31-.736-.463-7.927-4.919-16.678-8.84-25.753-11.047a67.896 67.896 0 0 0-1.062-.249 21.423 21.423 0 0 1-2.258 11.526c5.511 1.073 10.675 3.524 15.312 6.645a61.086 61.086 0 0 1 6.125 4.732c.371.324 2.043 1.5 1.795 1.923-.104.178-.786 1.086-.686 1.247l4.081 6.553 1.54 2.474c.072.116-.126.474-.166.59l-4.967 14.598 31.568-7.095 3.588 1.459v-5.78c2.441 2.147 3.599 5.87 4.735 8.814 1.352 3.504 2.537 7.07 3.921 10.562 1.211 3.054 2.519 6.267 4.62 8.83 1.846 2.247 5.076 3.552 7.326.981 1.501-1.715 1.748-4.307 1.774-6.482.026-2.583-.309-5.167-.772-7.704z" fill="#27aae1"/><path d="M86.217 56.919c-8.284 0-15 6.716-15 15s15.502 45 15.502 45 14.498-36.716 14.498-45-6.716-15-15-15zm0 21a6.667 6.667 0 1 1 0-13.334 6.667 6.667 0 0 1 0 13.334z" fill="#ed1c24"/></svg>