<svg width="74" height="120" viewBox="0 0 74 120" fill="none" xmlns="http://www.w3.org/2000/svg">
<path d="M37 101C17.67 101 2 104.806 2 109.5C2 114.194 17.67 118 37 118C56.33 118 72 114.194 72 109.5C72 105.474 60.4748 102.102 45 101.223" stroke="url(#paint0_linear)" stroke-width="3"/>
<path d="M37.31 110.46L5.5 45.5C13.4233 60.6272 21.5 64 36.5 64C53.0145 64 61.9537 52.7776 65.633 45.0035L66.5 43C66.252 43.6328 65.964 44.3042 65.633 45.0035L37.31 110.46Z" fill="#6831DE"/>
<path fill-rule="evenodd" clip-rule="evenodd" d="M62.4716 51.3982C70.1917 39.7876 69.7804 24.0425 60.43 12.7503C49.0029 -1.04986 28.5522 -2.97359 14.7521 8.45352C1.92421 19.0755 -0.64179 37.4944 8.23829 51.1211L37.2957 110.46L62.4716 51.3982Z" fill="url(#paint1_linear)"/>
<path d="M18.69 48.0299C26.6153 57.601 40.7989 58.9352 50.3699 51.0099C59.941 43.0847 61.2752 28.9011 53.35 19.33C45.4247 9.7589 31.2411 8.4247 21.67 16.35C12.0989 24.2752 10.7647 38.4588 18.69 48.0299Z" fill="white"/>
<path d="M27.9734 44.3901C30.929 48.1132 39.8803 50.1612 45 43" stroke="url(#paint2_linear)" stroke-width="2"/>
<path d="M27.5 33C29.433 33 31 31.433 31 29.5C31 27.567 29.433 26 27.5 26C25.567 26 24 27.567 24 29.5C24 31.433 25.567 33 27.5 33Z" fill="url(#paint3_linear)"/>
<path d="M42.5 30H48.5" stroke="url(#paint4_linear)" stroke-width="3"/>
<defs>
<linearGradient id="paint0_linear" x1="21.5417" y1="101" x2="27.8819" y2="124.915" gradientUnits="userSpaceOnUse">
<stop stop-color="#E03BFB"/>
<stop offset="1" stop-color="#6831DE"/>
</linearGradient>
<linearGradient id="paint1_linear" x1="-28.5" y1="53" x2="49.5" y2="81.5" gradientUnits="userSpaceOnUse">
<stop stop-color="#CF48FF"/>
<stop offset="0.390624" stop-color="#AE46FF"/>
<stop offset="0.942708" stop-color="#6831DE"/>
</linearGradient>
<linearGradient id="paint2_linear" x1="32.7266" y1="43" x2="34.7432" y2="49.5795" gradientUnits="userSpaceOnUse">
<stop stop-color="#E03BFB"/>
<stop offset="1" stop-color="#6831DE"/>
</linearGradient>
<linearGradient id="paint3_linear" x1="25.9542" y1="26" x2="31.2037" y2="30.8088" gradientUnits="userSpaceOnUse">
<stop stop-color="#E03BFB"/>
<stop offset="1" stop-color="#6831DE"/>
</linearGradient>
<linearGradient id="paint4_linear" x1="44.175" y1="30" x2="44.4402" y2="31.4574" gradientUnits="userSpaceOnUse">
<stop stop-color="#E03BFB"/>
<stop offset="1" stop-color="#6831DE"/>
</linearGradient>
</defs>
</svg>
